# xmcd
#
# Track frame offsets:
#	150
#	12735
#	26097
#	35876
#	49701
#	59795
#	73390
#	84550
#	98410
#	111515
#	124575
#	137018
#	148274
#	160127
#	174230
#	186940
#	198027
#	209014
#	222072
#	231884
#	244391
#	254402
#	264764
#	276957
#
# Disc length: 3827 seconds
#
# Revision: 0
# Processed by: cddbd v1.5.2PL0 Copyright (c) Steve Scherf et al.
# Submitted via: EasyCDDAExtractor 2010.6.0.0
#
DISCID=750ef118
DTITLE=Kemp Wayne - Singles Collection
DYEAR=1900
DGENRE=
TTITLE0=Just Got Back From No Man's Land
TTITLE1=Turn Me Loose
TTITLE2=Wrecked Up Frame Of Mind
TTITLE3=Why Am I Doing Without
TTITLE4=Your Wife Is Cheatin' On Us Again
TTITLE5=God Made Her Special
TTITLE6=I'll Leave This World Loving You
TTITLE7=Waiting For The Tables To Turn
TTITLE8=I Can't Wait To Dream That Dream Again
TTITLE9=I Should Have Watched That First Step
TTITLE10=Tell Old I Ain't Here To Get On Home
TTITLE11=I Love It (When You Love All Over Me)
TTITLE12=Leona Don't Live Here Anymore
TTITLE13=Leona Don't Live Here Anymore
TTITLE14=Baby This And Baby That
TTITLE15=You Cried All The Way Back To Me
TTITLE16=Little Old Heartache Maker
TTITLE17=Watch That First Step
TTITLE18=Little  Home Wrecker
TTITLE19=Two Strangers
TTITLE20=Big News
TTITLE21=Along Came You
TTITLE22=I Made Her That Way
TTITLE23=Love Goes To Hell When It Dies
EXTD=
EXTT0=
EXTT1=
EXTT2=
EXTT3=
EXTT4=
EXTT5=
EXTT6=
EXTT7=
EXTT8=
EXTT9=
EXTT10=
EXTT11=
EXTT12=
EXTT13=
EXTT14=
EXTT15=
EXTT16=
EXTT17=
EXTT18=
EXTT19=
EXTT20=
EXTT21=
EXTT22=
EXTT23=
PLAYORDER=
